<svg xmlns="http://www.w3.org/2000/svg" viewBox="0 0 1024 1024"><defs><style>.a{fill:#486d97;}.b{fill:#fff;}</style></defs><rect class="a" width="1024" height="1024"/><path class="b" d="M479,626c-31-89.15-71.81-173.92-48-267,11-43,19.34-90.88,29-135,6.09-27.81,5.39-35.19-27-36-40-1-87-2-125-4-29.37-1.55-32.55,7.8-37.4,33.61-10.77,57.45-24.09,114.5-32.73,172.26-4.2,28.08-6.24,59,1.09,85.83,30.81,112.8,65.75,224.45,98.61,336.7,6.68,22.81,24.61,27,48.43,27.6,37,1,63,1,98,0,18.54-.53,42.12-10.56,53.06-24.72,53.75-69.57,105.3-140.91,156.13-212.66C734,545,791,446,799.21,427.72,813.93,395,821,368,837,267c3.86-24.36,4.44-21.5,8-50,3-24-8.29-30.31-19-30-33.29,1-52.78,1.11-116,2-53,.75-52-5-63.3,81.85C640.6,317.78,636.21,365.38,621,411,616,426,532,554,479,626Z"/></svg>