<?xml version="1.0" encoding="utf-8"?>
<svg xmlns="http://www.w3.org/2000/svg" viewBox="0 0 512 512" style="fill:#a0a5aa;"><path class="a" d="M0,0H512V512H0ZM239.5,313c-15.5-44.58-35.9-87-24-133.5C221,158,225.17,134.06,230,112c3-13.9,2.7-17.6-13.5-18-20-.5-43.5-1-62.5-2-14.68-.78-16.27,3.9-18.7,16.81-5.38,28.72-12,57.24-16.36,86.12-2.1,14-3.12,29.5.54,42.92,15.41,56.4,32.88,112.23,49.31,168.35,3.33,11.41,12.3,13.5,24.21,13.8,18.5.5,31.5.5,49,0,9.27-.27,21.06-5.28,26.53-12.36,26.87-34.78,52.65-70.46,78.07-106.33,20.4-28.81,48.9-78.31,53-87.45C407,197.5,410.5,184,418.5,133.5c1.93-12.18,2.22-10.75,4-25,1.5-12-4.14-15.15-9.5-15-16.64.5-26.39.56-58,1-26.5.38-26-2.5-31.65,40.93-3.05,23.46-5.24,47.26-12.85,70.07C308,213,266,277,239.5,313Z"/></svg>