<?xml version="1.0" encoding="utf-8"?>
<svg xmlns="http://www.w3.org/2000/svg" viewBox="0 0 476.53 512" style="fill: #a0a5aa">
	<path d="M208.62,344.62c-24.16-69.48-56-135.55-37.41-208.1,8.57-33.51,15.07-70.83,22.6-105.22,4.75-21.67,4.2-27.42-21-28.06C141.59,2.46,105,1.69,75.34.13,52.45-1.08,50,6.2,46.2,26.32,37.8,71.1,27.42,115.57,20.68,160.58c-3.27,21.88-4.86,46,.85,66.9,24,87.91,51.25,174.94,76.86,262.42,5.21,17.79,19.18,21,37.75,21.52,28.84.77,49.1.77,76.38,0,14.45-.42,32.83-8.24,41.35-19.27,41.9-54.22,82.07-109.83,121.69-165.75,31.81-44.91,76.24-122.07,82.64-136.32,11.46-25.52,17-46.54,29.45-125.26,3-19,3.46-16.76,6.23-39,2.34-18.71-6.46-23.63-14.81-23.39-25.94.76-41.13.87-90.41,1.56-41.33.59-40.52-3.89-49.33,63.8-4.76,36.57-8.18,73.68-20,109.23C315.4,188.74,249.93,288.51,208.62,344.62Z" transform="translate(-17.73 0)"/>
</svg>